<svg data-v-fde0c5aa="" xmlns="http://www.w3.org/2000/svg" viewBox="0 0 300 300" class="icon"><!----><defs data-v-fde0c5aa=""><!----></defs><rect data-v-fde0c5aa="" fill="transparent" x="0" y="0" width="300px" height="300px" class="logo-background-square"></rect><!----><defs data-v-fde0c5aa=""><linearGradient data-v-fde0c5aa="" gradientTransform="rotate(25)" id="211ef8b2-2c5e-497c-a823-c0976fc08159" x1="0%" y1="0%" x2="100%" y2="0%"><stop data-v-fde0c5aa="" offset="0%" stop-color="#8C48D2" stop-opacity="1"></stop><stop data-v-fde0c5aa="" offset="100%" stop-color="#CF705A" stop-opacity="1"></stop></linearGradient></defs><g data-v-fde0c5aa="" id="7111a2fb-9bba-4c39-beff-d934ef286df7" fill="url(#211ef8b2-2c5e-497c-a823-c0976fc08159)" stroke="none" transform="matrix(3.745173772754255,0,0,3.745173772754255,30.177405148785308,30.154446415215908)"><path d="M56.259 42.445h-32a1 1 0 0 1-1-1v-10a1 1 0 0 1 1-1h32a1 1 0 0 1 1 1v10a1 1 0 0 1-1 1zm-31-2h30v-8h-30v8z"></path><path d="M56.259 32.445h-14a1 1 0 0 1-1-1v-6a1 1 0 0 1 1-1h14a1 1 0 0 1 1 1v6a1 1 0 0 1-1 1zm-13-2h12v-4h-12v4z"></path><path d="M53.915 26.466a1 1 0 0 1-1-1v-4a1 1 0 1 1 2 0v4a1 1 0 0 1-1 1zM28.696 32.32a1 1 0 0 1-1-1v-16a1 1 0 1 1 2 0v16a1 1 0 0 1-1 1z"></path><path d="M36.821 16.164h-18a1 1 0 0 1-1-1v-8a1 1 0 0 1 1-1h18a1 1 0 0 1 1 1v8a1 1 0 0 1-1 1zm-17-2h16v-6h-16v6z"></path><circle cx="23.374" cy="11.383" r="2"></circle><circle cx="15.773" cy="32.906" r="2"></circle><path d="M7.288 42.392a1 1 0 0 1-.707-1.707l8.485-8.486a1 1 0 1 1 1.414 1.414L7.995 42.1a.997.997 0 0 1-.707.293z"></path><path d="M24.259 42.392a.997.997 0 0 1-.707-.293l-8.486-8.486A1 1 0 1 1 16.48 32.2l8.486 8.486a1 1 0 0 1-.707 1.707zM9.292 46.045a.997.997 0 0 1-.707-.293l-5.657-5.657a1 1 0 1 1 1.414-1.414l5.657 5.657a1 1 0 0 1-.707 1.707zM36.821 12.164h-6a1 1 0 1 1 0-2h6a1 1 0 1 1 0 2zM56.19 35.807h-9.626a1.07 1.07 0 1 1 0-2.14h9.625a1.07 1.07 0 1 1 0 2.14zm-13.904 0h-1.07a1.07 1.07 0 1 1 0-2.14h1.07a1.07 1.07 0 1 1 0 2.14zM56.259 39.153h-6a1 1 0 1 1 0-2h6a1 1 0 1 1 0 2zM25.152 57.836c-3.308 0-6-2.691-6-6s2.692-6 6-6 6 2.691 6 6-2.691 6-6 6zm0-10c-2.205 0-4 1.794-4 4s1.795 4 4 4 4-1.794 4-4-1.794-4-4-4zM40.259 57.836c-3.309 0-6-2.691-6-6s2.691-6 6-6 6 2.691 6 6-2.692 6-6 6zm0-10c-2.206 0-4 1.794-4 4s1.794 4 4 4 4-1.794 4-4-1.795-4-4-4zM55.365 57.836c-3.309 0-6-2.691-6-6s2.691-6 6-6 6 2.691 6 6-2.691 6-6 6zm0-10c-2.206 0-4 1.794-4 4s1.794 4 4 4 4-1.794 4-4-1.794-4-4-4z"></path><circle cx="30.696" cy="36.445" r="2"></circle><path d="M32.863 21.612h-8a1 1 0 1 1 0-2h8a1 1 0 1 1 0 2zM55.915 21.84h-4a1 1 0 0 1-1-1v-6a1 1 0 0 1 1-1h4a1 1 0 0 1 1 1v6a1 1 0 0 1-1 1zm-3-2h2v-4h-2v4z"></path><circle cx="25.152" cy="51.836" r="1.5"></circle><circle cx="40.259" cy="51.836" r="1.5"></circle><circle cx="55.365" cy="51.836" r="1.5"></circle></g><!----></svg>